Supernatural.S06E03.720p.HDTV.x264.Dual.Audio-By_Beto™


Video
ID                                       : 1
Format                                   : AVC
Format/Info                              : Advanced Video Codec
Format profile                           : High@L4.1
Format settings, CABAC                   : Yes
Format settings, ReFrames                : 8 frames
Codec ID                                 : V_MPEG4/ISO/AVC
Duration                                 : 41mn 23s
Bit rate                                 : 3 441 Kbps
Width                                    : 1 280 pixels
Height                                   : 720 pixels
Display aspect ratio                     : 16:9
Frame rate                               : 23.976 fps
Color space                              : YUV
Chroma subsampling                       : 4:2:0
Bit depth                                : 8 bits
Scan type                                : Progressive
Bits/(Pixel*Frame)                       : 0.156
Stream size                              : 981 MiB (82%)
Title                                    : Supernatural.S06E03
Writing library                          : x264 core 102 r1666 d058f37
Language                                 : English

Audio #1
ID                                       : 2
Format                                   : MPEG Audio
Format version                           : Version 1
Format profile                           : Layer 3
Codec ID                                 : A_MPEG/L3
Codec ID/Hint                            : MP3
Duration                                 : 41mn 23s
Bit rate mode                            : Constant
Bit rate                                 : 256 Kbps
Channel(s)                               : 2 channels
Sampling rate                            : 44.1 KHz
Compression mode                         : Lossy
Stream size                              : 75.8 MiB (6%)
Title                                    : Portiguês-By_Beto™
Language                                 : Portuguese

Audio #2
ID                                       : 3
Format                                   : AC-3
Format/Info                              : Audio Coding 3
Mode extension                           : CM (complete main)
Codec ID                                 : A_AC3
Duration                                 : 41mn 23s
Bit rate mode                            : Constant
Bit rate                                 : 384 Kbps
Channel(s)                               : 2 channels
Channel positions                        : Front: L R
Sampling rate                            : 48.0 KHz
Bit depth                                : 16 bits
Compression mode                         : Lossy
Stream size                              : 114 MiB (10%)
Title                                    : Inglês-By_Beto™
Language                                 : English